<svg width="193" height="22" viewBox="0 0 193 22" fill="none" xmlns="http://www.w3.org/2000/svg">
<path d="M22.7051 0.873047L27.8467 14.8477L33.4131 0.873047H39.0527L30.9668 21H24.9316L19.6729 7.46484L14.4287 21H8.39355L0.292969 0.873047H5.94727L11.3965 14.5547L16.6553 0.873047H22.7051ZM42.5244 21V0.873047H47.959V21H42.5244ZM72.8174 6.54199C72.4365 6.35645 71.9336 6.14648 71.3086 5.91211C70.6836 5.67773 69.9756 5.45801 69.1846 5.25293C68.3936 5.03809 67.5342 4.8623 66.6064 4.72559C65.6787 4.5791 64.7266 4.50586 63.75 4.50586C62.9688 4.50586 62.2998 4.53027 61.7432 4.5791C61.1963 4.62793 60.7324 4.69141 60.3516 4.76953C59.9805 4.84766 59.6826 4.94043 59.458 5.04785C59.2432 5.14551 59.0771 5.24805 58.96 5.35547C58.8428 5.46289 58.7646 5.57031 58.7256 5.67773C58.6963 5.78516 58.6816 5.88281 58.6816 5.9707C58.6816 6.26367 58.8281 6.52246 59.1211 6.74707C59.4141 6.96191 59.8145 7.15723 60.3223 7.33301C60.8301 7.49902 61.4209 7.66016 62.0947 7.81641C62.7686 7.96289 63.4814 8.11914 64.2334 8.28516C64.9951 8.44141 65.7764 8.61719 66.5771 8.8125C67.3877 8.99805 68.1689 9.21777 68.9209 9.47168C69.6826 9.72559 70.4004 10.0234 71.0742 10.3652C71.748 10.6973 72.3389 11.0879 72.8467 11.5371C73.3545 11.9863 73.7549 12.5039 74.0479 13.0898C74.3408 13.6758 74.4873 14.3447 74.4873 15.0967C74.4873 16.0635 74.3164 16.8936 73.9746 17.5869C73.6328 18.2803 73.1738 18.8662 72.5977 19.3447C72.0312 19.8232 71.3721 20.209 70.6201 20.502C69.8682 20.7852 69.0771 21.0049 68.2471 21.1611C67.4268 21.3174 66.5918 21.4199 65.7422 21.4688C64.9023 21.5176 64.1016 21.542 63.3398 21.542C61.3477 21.542 59.502 21.376 57.8027 21.0439C56.1133 20.7217 54.6191 20.3164 53.3203 19.8281V15.0234C54.6582 15.7656 56.1816 16.3467 57.8906 16.7666C59.6094 17.1865 61.4453 17.3965 63.3984 17.3965C64.5508 17.3965 65.4883 17.3379 66.2109 17.2207C66.9434 17.0938 67.5146 16.9375 67.9248 16.752C68.335 16.5566 68.6133 16.3467 68.7598 16.1221C68.9062 15.8975 68.9795 15.6826 68.9795 15.4775C68.9795 15.1553 68.833 14.877 68.54 14.6426C68.2471 14.3984 67.8467 14.1885 67.3389 14.0127C66.8311 13.8271 66.2402 13.6611 65.5664 13.5146C64.8926 13.3584 64.1748 13.207 63.4131 13.0605C62.6611 12.9043 61.8848 12.7383 61.084 12.5625C60.2832 12.3867 59.502 12.1816 58.7402 11.9473C57.9883 11.7031 57.2754 11.4248 56.6016 11.1123C55.9277 10.79 55.3369 10.4141 54.8291 9.98438C54.3213 9.54492 53.9209 9.04199 53.6279 8.47559C53.335 7.89941 53.1885 7.23535 53.1885 6.4834C53.1885 5.59473 53.3447 4.82812 53.6572 4.18359C53.9697 3.53906 54.3896 2.99219 54.917 2.54297C55.4541 2.08398 56.0693 1.71289 56.7627 1.42969C57.4658 1.14648 58.2031 0.926758 58.9746 0.770508C59.7461 0.614258 60.5273 0.506836 61.3184 0.448242C62.1094 0.389648 62.8613 0.360352 63.5742 0.360352C64.3555 0.360352 65.1562 0.399414 65.9766 0.477539C66.8066 0.555664 67.6221 0.667969 68.4229 0.814453C69.2236 0.951172 69.9951 1.1123 70.7373 1.29785C71.4893 1.4834 72.1826 1.67871 72.8174 1.88379V6.54199ZM98.9062 21V12.6064H85.0781V21H79.6436V0.873047H85.0781V8.19727H98.9062V0.873047H104.341V21H98.9062ZM116.074 12.3867C116.074 13.2266 116.152 13.915 116.309 14.4521C116.465 14.9795 116.719 15.3994 117.07 15.7119C117.422 16.0244 117.876 16.2393 118.433 16.3564C118.999 16.4736 119.692 16.5322 120.513 16.5322H130.825V21H119.399C117.817 21 116.47 20.873 115.356 20.6191C114.253 20.3555 113.35 19.9551 112.646 19.418C111.943 18.8711 111.431 18.1826 111.108 17.3525C110.796 16.5225 110.64 15.5361 110.64 14.3936V0.873047H116.074V12.3867ZM135.19 21V0.873047H140.625V21H135.19ZM165.483 6.54199C165.103 6.35645 164.6 6.14648 163.975 5.91211C163.35 5.67773 162.642 5.45801 161.851 5.25293C161.06 5.03809 160.2 4.8623 159.272 4.72559C158.345 4.5791 157.393 4.50586 156.416 4.50586C155.635 4.50586 154.966 4.53027 154.409 4.5791C153.862 4.62793 153.398 4.69141 153.018 4.76953C152.646 4.84766 152.349 4.94043 152.124 5.04785C151.909 5.14551 151.743 5.24805 151.626 5.35547C151.509 5.46289 151.431 5.57031 151.392 5.67773C151.362 5.78516 151.348 5.88281 151.348 5.9707C151.348 6.26367 151.494 6.52246 151.787 6.74707C152.08 6.96191 152.48 7.15723 152.988 7.33301C153.496 7.49902 154.087 7.66016 154.761 7.81641C155.435 7.96289 156.147 8.11914 156.899 8.28516C157.661 8.44141 158.442 8.61719 159.243 8.8125C160.054 8.99805 160.835 9.21777 161.587 9.47168C162.349 9.72559 163.066 10.0234 163.74 10.3652C164.414 10.6973 165.005 11.0879 165.513 11.5371C166.021 11.9863 166.421 12.5039 166.714 13.0898C167.007 13.6758 167.153 14.3447 167.153 15.0967C167.153 16.0635 166.982 16.8936 166.641 17.5869C166.299 18.2803 165.84 18.8662 165.264 19.3447C164.697 19.8232 164.038 20.209 163.286 20.502C162.534 20.7852 161.743 21.0049 160.913 21.1611C160.093 21.3174 159.258 21.4199 158.408 21.4688C157.568 21.5176 156.768 21.542 156.006 21.542C154.014 21.542 152.168 21.376 150.469 21.0439C148.779 20.7217 147.285 20.3164 145.986 19.8281V15.0234C147.324 15.7656 148.848 16.3467 150.557 16.7666C152.275 17.1865 154.111 17.3965 156.064 17.3965C157.217 17.3965 158.154 17.3379 158.877 17.2207C159.609 17.0938 160.181 16.9375 160.591 16.752C161.001 16.5566 161.279 16.3467 161.426 16.1221C161.572 15.8975 161.646 15.6826 161.646 15.4775C161.646 15.1553 161.499 14.877 161.206 14.6426C160.913 14.3984 160.513 14.1885 160.005 14.0127C159.497 13.8271 158.906 13.6611 158.232 13.5146C157.559 13.3584 156.841 13.207 156.079 13.0605C155.327 12.9043 154.551 12.7383 153.75 12.5625C152.949 12.3867 152.168 12.1816 151.406 11.9473C150.654 11.7031 149.941 11.4248 149.268 11.1123C148.594 10.79 148.003 10.4141 147.495 9.98438C146.987 9.54492 146.587 9.04199 146.294 8.47559C146.001 7.89941 145.854 7.23535 145.854 6.4834C145.854 5.59473 146.011 4.82812 146.323 4.18359C146.636 3.53906 147.056 2.99219 147.583 2.54297C148.12 2.08398 148.735 1.71289 149.429 1.42969C150.132 1.14648 150.869 0.926758 151.641 0.770508C152.412 0.614258 153.193 0.506836 153.984 0.448242C154.775 0.389648 155.527 0.360352 156.24 0.360352C157.021 0.360352 157.822 0.399414 158.643 0.477539C159.473 0.555664 160.288 0.667969 161.089 0.814453C161.89 0.951172 162.661 1.1123 163.403 1.29785C164.155 1.4834 164.849 1.67871 165.483 1.88379V6.54199ZM183.589 5.25293V21H178.154V5.25293H169.614V0.873047H192.144V5.25293H183.589Z" fill="black"/>
</svg>
